<svg width="79" height="15" viewBox="0 0 79 15" fill="none" xmlns="http://www.w3.org/2000/svg">
<path d="M6.426 10.058H4.284L3.582 14H0.342L2.628 1.04H8.118C9.474 1.04 10.44 1.352 11.016 1.976C11.436 2.456 11.646 3.068 11.646 3.812C11.646 4.064 11.622 4.328 11.574 4.604L11.214 6.638C11.034 7.634 10.506 8.456 9.63 9.104C8.754 9.74 7.686 10.058 6.426 10.058ZM6.984 3.848H5.364L4.77 7.25H6.372C7.356 7.25 7.926 6.812 8.082 5.936L8.208 5.198C8.232 5.09 8.244 4.946 8.244 4.766C8.244 4.586 8.154 4.388 7.974 4.172C7.794 3.956 7.464 3.848 6.984 3.848ZM20.2286 11.228C20.2286 11.54 20.3846 11.696 20.6966 11.696C21.0206 11.696 21.2906 11.636 21.5066 11.516L21.4166 13.55C20.8406 14.018 20.1926 14.252 19.4726 14.252C18.1526 14.252 17.4206 13.772 17.2766 12.812C16.6766 13.772 15.7946 14.252 14.6306 14.252C12.6626 14.252 11.6786 13.406 11.6786 11.714C11.6786 11.426 11.7086 11.108 11.7686 10.76L12.1466 8.654C12.3386 7.574 12.7766 6.716 13.4606 6.08C14.1566 5.432 15.0566 5.108 16.1606 5.108C17.2766 5.108 18.0326 5.366 18.4286 5.882L18.5186 5.342H21.2546L20.2466 11.012C20.2346 11.084 20.2286 11.156 20.2286 11.228ZM14.9006 10.364C14.8766 10.472 14.8646 10.622 14.8646 10.814C14.8646 11.006 14.9546 11.198 15.1346 11.39C15.3146 11.57 15.6146 11.66 16.0346 11.66C16.4666 11.66 16.8386 11.492 17.1506 11.156L17.6906 8.132C17.5586 7.832 17.2466 7.682 16.7546 7.682C15.8306 7.682 15.2906 8.126 15.1346 9.014L14.9006 10.364ZM31.3448 7.178C31.3448 7.586 31.2728 7.982 31.1288 8.366C30.9968 8.75 30.8648 9.032 30.7328 9.212L30.5348 9.464H27.8168C28.1168 9.188 28.2668 8.846 28.2668 8.438C28.2668 8.222 28.1948 8.048 28.0508 7.916C27.9188 7.772 27.7328 7.7 27.4928 7.7C27.0848 7.7 26.7308 7.904 26.4308 8.312L25.4228 14H22.3628L23.8928 5.342H26.7368L26.5208 6.548C27.2048 5.576 28.0328 5.09 29.0048 5.09C29.7848 5.09 30.3668 5.276 30.7508 5.648C31.1468 6.02 31.3448 6.53 31.3448 7.178ZM40.3028 11.228C40.3028 11.54 40.4588 11.696 40.7708 11.696C41.0948 11.696 41.3648 11.636 41.5808 11.516L41.4908 13.55C40.9148 14.018 40.2668 14.252 39.5468 14.252C38.2268 14.252 37.4948 13.772 37.3508 12.812C36.7508 13.772 35.8688 14.252 34.7048 14.252C32.7368 14.252 31.7528 13.406 31.7528 11.714C31.7528 11.426 31.7828 11.108 31.8428 10.76L32.2208 8.654C32.4128 7.574 32.8508 6.716 33.5348 6.08C34.2308 5.432 35.1308 5.108 36.2348 5.108C37.3508 5.108 38.1068 5.366 38.5028 5.882L38.5928 5.342H41.3288L40.3208 11.012C40.3088 11.084 40.3028 11.156 40.3028 11.228ZM34.9748 10.364C34.9508 10.472 34.9388 10.622 34.9388 10.814C34.9388 11.006 35.0288 11.198 35.2088 11.39C35.3888 11.57 35.6888 11.66 36.1088 11.66C36.5408 11.66 36.9128 11.492 37.2248 11.156L37.7648 8.132C37.6328 7.832 37.3208 7.682 36.8288 7.682C35.9048 7.682 35.3648 8.126 35.2088 9.014L34.9748 10.364ZM50.843 14H42.635L44.921 1.04H48.161L46.379 11.192H51.347L50.843 14ZM56.1374 11.696C56.4134 11.696 56.6594 11.636 56.8754 11.516L56.7854 13.55C56.2214 14.018 55.5794 14.252 54.8594 14.252C53.7674 14.252 53.0594 14 52.7354 13.496C52.5194 13.16 52.4114 12.806 52.4114 12.434C52.4114 12.05 52.4354 11.714 52.4834 11.426L53.5634 5.342H56.6234L55.6154 11.012C55.6034 11.084 55.5974 11.15 55.5974 11.21C55.5974 11.534 55.7774 11.696 56.1374 11.696ZM53.9234 2.408C53.9234 1.64 54.0914 1.082 54.4274 0.733999C54.7754 0.373999 55.3094 0.194 56.0294 0.194C57.0374 0.194 57.5414 0.638 57.5414 1.526C57.5414 2.282 57.3674 2.834 57.0194 3.182C56.6834 3.53 56.1494 3.704 55.4174 3.704C54.4214 3.704 53.9234 3.272 53.9234 2.408ZM63.7779 8.474C63.7779 7.958 63.5259 7.7 63.0219 7.7C62.5299 7.7 62.1219 7.886 61.7979 8.258L60.7899 14H57.7299L59.2599 5.342H62.1039L61.9059 6.404C62.6139 5.528 63.5079 5.09 64.5879 5.09C65.6679 5.09 66.3699 5.354 66.6939 5.882C66.8979 6.218 66.9999 6.602 66.9999 7.034C66.9999 7.466 66.9699 7.868 66.9099 8.24L66.4239 11.012C66.4119 11.084 66.4059 11.15 66.4059 11.21C66.4059 11.534 66.5859 11.696 66.9459 11.696C67.2219 11.696 67.4679 11.636 67.6839 11.516L67.5939 13.55C67.0299 14.018 66.3879 14.252 65.6679 14.252C64.0359 14.252 63.2199 13.568 63.2199 12.2C63.2199 11.96 63.2439 11.702 63.2919 11.426L63.7239 9.032C63.7599 8.816 63.7779 8.63 63.7779 8.474ZM77.3618 11.696C77.6378 11.696 77.8838 11.636 78.0998 11.516L78.0098 13.55C77.4458 14.018 76.7558 14.252 75.9398 14.252C75.1238 14.252 74.5178 14.036 74.1218 13.604C73.7378 13.172 73.4378 12.446 73.2218 11.426L73.1678 11.174C72.9158 11.21 72.5378 11.24 72.0338 11.264L71.5478 14H68.4878L70.8998 0.337999H73.9598L72.9158 6.26C73.6238 5.48 74.5838 5.09 75.7958 5.09C76.6118 5.09 77.2118 5.294 77.5957 5.702C77.9918 6.098 78.1898 6.632 78.1898 7.304C78.1898 8.6 77.5118 9.614 76.1558 10.346L76.3538 11.012C76.4858 11.468 76.8218 11.696 77.3618 11.696ZM74.2478 7.538C73.5998 7.538 73.0238 7.844 72.5198 8.456L72.3218 9.644C74.0978 9.572 74.9858 9.098 74.9858 8.222C74.9858 8.018 74.9198 7.856 74.7878 7.736C74.6678 7.604 74.4878 7.538 74.2478 7.538Z" fill="#FF0083"/>
</svg>
