<svg width="17" height="16" viewBox="0 0 17 16" fill="none" xmlns="http://www.w3.org/2000/svg">
<path d="M12.5388 8.64003L14.4488 6.73003C15.0888 6.09003 15.4088 5.30003 15.4088 4.42003C15.4088 3.54003 15.0888 2.67003 14.4488 1.95003C13.8088 1.31003 12.9388 0.990029 12.0588 0.990029C11.1788 0.990029 10.3088 1.39003 9.66878 1.95003L7.83878 3.94003L7.11878 3.22003L9.02878 1.31003C9.82878 0.510029 10.9388 0.0300293 12.1388 0.0300293C13.3388 0.0300293 14.3688 0.510029 15.2488 1.31003C16.9188 2.98003 16.9188 5.77003 15.2488 7.53003L13.2588 9.36003L12.5388 8.64003ZM2.25878 2.50003L2.97878 1.78003L14.6988 13.5L13.9788 14.22L2.25878 2.50003ZM4.88878 15.97C3.68878 15.97 2.65878 15.49 1.77878 14.69C0.978779 13.89 0.498779 12.78 0.498779 11.58C0.498779 10.38 0.978779 9.35003 1.77878 8.47003L3.68878 6.64003L4.40878 7.36003L2.49878 9.27003C1.85878 9.91003 1.53878 10.7 1.53878 11.58C1.53878 12.46 1.85878 13.33 2.49878 14.05C3.13878 14.69 4.00878 15.01 4.88878 15.01C5.76878 15.01 6.63878 14.61 7.27878 14.05L9.18878 12.14L9.90878 12.86L7.99878 14.77C7.11878 15.49 6.08878 15.97 4.88878 15.97Z" fill="#FF0083"/>
</svg>
