<svg width="24" height="24" viewBox="0 0 24 24" fill="none" xmlns="http://www.w3.org/2000/svg">
<rect width="24" height="24" rx="12" fill="#F6F6F7"/>
<path d="M14.569 18.4247C14.5631 18.3755 14.5606 18.3258 14.5615 18.2761C14.5534 18.2609 14.5483 18.2439 14.5465 18.2264V16.0932C14.5465 15.4213 14.3299 14.8477 13.8967 14.3735C15.0551 14.1529 15.9216 13.682 16.4956 12.9598C17.0696 12.2376 17.3571 11.3636 17.3571 10.3382C17.3571 9.37896 17.0751 8.54644 16.5106 7.84121C16.7122 7.13541 16.6768 6.39139 16.4053 5.60858C16.1228 5.58672 15.8158 5.63917 15.4834 5.7659C15.151 5.89263 14.9044 6.01117 14.7427 6.12096C14.582 6.23132 14.4357 6.33622 14.3049 6.43562C13.7205 6.25919 13.0681 6.17069 12.3484 6.17069C11.6276 6.17069 10.9807 6.25919 10.4063 6.43562C10.2955 6.34715 10.1667 6.251 10.0209 6.1461C9.87467 6.04122 9.62062 5.91449 9.25777 5.7659C8.89539 5.61677 8.56798 5.55339 8.27547 5.5758C7.99347 6.36954 7.96352 7.12448 8.18513 7.84119C7.63111 8.54698 7.35409 9.37896 7.35409 10.3382C7.35409 11.3636 7.6361 12.2349 8.20012 12.951C8.76413 13.6678 9.63061 14.1419 10.7991 14.3735C10.4999 14.6878 10.2902 15.09 10.1951 15.5317C9.33862 15.7627 8.73916 15.5972 8.39676 15.0345C7.76187 14.0206 7.19286 13.6568 6.68925 13.9436C6.61838 14.0206 6.62886 14.1004 6.7192 14.1834C6.81004 14.2659 6.9458 14.3763 7.12748 14.5139C7.30865 14.6522 7.44444 14.8035 7.53526 14.969C7.54525 14.9908 7.57319 15.0711 7.61863 15.2088C7.66202 15.3418 7.70728 15.474 7.75439 15.6054C7.79932 15.7321 7.88516 15.8731 8.01144 16.0271C8.13721 16.1817 8.28347 16.3112 8.44968 16.4161C8.61589 16.5204 8.84498 16.598 9.13697 16.6477C9.42897 16.6968 9.76138 16.6996 10.1342 16.6559V18.3177C10.1342 18.334 10.1317 18.3614 10.1267 18.4007C10.1218 18.4389 14.569 18.4247 14.569 18.4247Z" fill="#121619" fill-opacity="0.5"/>
</svg>
