<svg width="80" height="81" viewBox="0 0 80 81" fill="none" xmlns="http://www.w3.org/2000/svg">
<path d="M40 0.5C17.9086 0.5 0 18.4086 0 40.5C0 62.5914 17.9086 80.5 40 80.5C62.0914 80.5 80 62.5914 80 40.5C80 18.4086 62.0914 0.5 40 0.5ZM61.8761 30.9983L35.8016 57.0727C35.1915 57.6828 34.2021 57.6828 33.5919 57.0727L18.124 41.6047C17.5138 40.9947 17.5138 40.0053 18.124 39.3952L22.9853 34.534C23.5955 33.9236 24.5848 33.9238 25.195 34.534L34.6969 44.0355L54.8053 23.9272C55.4155 23.317 56.4047 23.317 57.015 23.9272L61.8763 28.7885C62.4863 29.3987 62.4864 30.3881 61.8761 30.9983Z" fill="#FF0083"/>
</svg>
