<svg width="19" height="18" viewBox="0 0 19 18" fill="none" xmlns="http://www.w3.org/2000/svg">
<path d="M19 16.1314C19 16.3915 18.9555 16.6345 18.8666 16.8604C18.7776 17.0863 18.651 17.2847 18.4867 17.4559C18.3224 17.627 18.1308 17.7604 17.9117 17.8563C17.6927 17.9521 17.4532 18 17.1931 18H2.28563C2.02554 18 1.77914 17.9521 1.54642 17.8563C1.31371 17.7604 1.10837 17.627 0.930411 17.4559C0.752453 17.2847 0.612139 17.0863 0.509471 16.8604C0.406803 16.6345 0.355469 16.3915 0.355469 16.1314V5.88515C0.355469 5.36496 0.536849 4.92349 0.89961 4.56072C1.26237 4.19796 1.70385 4.01658 2.22403 4.01658H17.1315C17.6516 4.01658 18.0931 4.19796 18.4559 4.56072C18.8186 4.92349 19 5.36496 19 5.88515V8.67772H14.3389C13.8187 8.67772 13.3772 8.85568 13.0145 9.2116C12.6517 9.56751 12.4703 10.0056 12.4703 10.5258C12.484 10.8817 12.5593 11.1965 12.6962 11.4703C12.8057 11.703 12.9871 11.9152 13.2403 12.1068C13.4936 12.2985 13.8598 12.3943 14.3389 12.3943H19V16.1314ZM16.2074 3.07203H6.88517C7.62438 2.68874 8.32253 2.31913 8.9796 1.96322C9.55454 1.66206 10.1226 1.3609 10.6839 1.05974C11.2451 0.758576 11.6832 0.525862 11.998 0.361593C12.4772 0.1015 12.905 -0.01828 13.2814 0.00225369C13.6579 0.0227873 13.9761 0.0878105 14.2362 0.197323C14.5374 0.347903 14.7975 0.546395 15.0165 0.792799L16.2074 3.07203ZM13.4149 10.5258C13.4149 10.2657 13.5038 10.0466 13.6818 9.86867C13.8598 9.69072 14.0788 9.60174 14.3389 9.60174C14.599 9.60174 14.818 9.69072 14.996 9.86867C15.1739 10.0466 15.2629 10.2657 15.2629 10.5258C15.2629 10.7858 15.1739 11.0083 14.996 11.1931C14.818 11.3779 14.599 11.4703 14.3389 11.4703C14.0788 11.4703 13.8598 11.3779 13.6818 11.1931C13.5038 11.0083 13.4149 10.7858 13.4149 10.5258Z" fill="#121619"/>
</svg>
